<svg width="17" height="16" viewBox="0 0 17 16" fill="none" xmlns="http://www.w3.org/2000/svg">
  <path
    d="M1.00037 7.45196C1.0369 7.21486 1.06649 6.97665 1.11107 6.741C1.42965 5.05164 2.25679 3.66187 3.58226 2.56839C3.61039 2.54537 3.63962 2.52345 3.66702 2.49934C3.67214 2.49496 3.67141 2.484 3.67689 2.46061C3.40142 2.46061 3.1296 2.46171 2.85778 2.45988C2.78983 2.45952 2.71932 2.45806 2.65465 2.44089C2.53555 2.4091 2.44494 2.26662 2.45517 2.14532C2.46723 2.0043 2.58012 1.87716 2.71895 1.87643C3.32506 1.87204 3.93117 1.87168 4.53728 1.87679C4.68049 1.87789 4.79521 2.00576 4.79631 2.16286C4.80106 2.74631 4.80142 3.32977 4.79631 3.91286C4.79484 4.08713 4.66186 4.20733 4.49928 4.2066C4.33232 4.20587 4.20664 4.07983 4.20445 3.89606C4.20043 3.55446 4.20335 3.21286 4.20335 2.85701C4.17047 2.87126 4.14526 2.87674 4.12663 2.89136C2.79531 3.91615 1.97182 5.25222 1.68173 6.9087C1.4987 7.95432 1.57505 8.98459 1.90788 9.9944C1.932 10.0675 1.95209 10.1424 1.96926 10.2176C2.0153 10.4186 1.9594 10.5216 1.77855 10.5746C1.62036 10.621 1.47057 10.5472 1.41503 10.3744C1.32479 10.0938 1.23199 9.8121 1.16916 9.52457C1.10339 9.22353 1.07197 8.91481 1.02484 8.60975C1.02009 8.57869 1.0084 8.5491 1 8.51877C1 8.16329 1 7.80781 1 7.45233L1.00037 7.45196Z"
    fill="currentColor" stroke="currentColor" stroke-width="0.4"/>
  <path
    d="M7.45367 15.0001C7.22606 14.9647 6.99735 14.934 6.77047 14.893C5.38471 14.6446 4.18419 14.0297 3.16414 13.0605C3.13492 13.0327 3.10423 13.0064 3.06002 12.9669C3.05491 13.0144 3.04796 13.0477 3.04796 13.0809C3.04687 13.3224 3.05016 13.5639 3.0465 13.8054C3.04358 13.999 2.92119 14.1258 2.74728 14.1247C2.57411 14.1236 2.45355 13.9961 2.45282 13.801C2.45062 13.2406 2.45062 12.6802 2.45282 12.1201C2.45355 11.9188 2.56169 11.7938 2.75751 11.7916C3.33586 11.7854 3.91456 11.7858 4.49327 11.7916C4.67594 11.7935 4.80381 11.9334 4.79651 12.0938C4.7892 12.2589 4.65841 12.3744 4.47354 12.3747C4.10052 12.3758 3.72751 12.3747 3.33476 12.4029C3.50465 12.5621 3.66832 12.7287 3.84515 12.8796C4.81952 13.7101 5.94588 14.2077 7.214 14.3666C8.21322 14.4915 9.19234 14.383 10.1441 14.0454C10.4042 13.953 10.6194 14.116 10.5734 14.3651C10.5511 14.4857 10.4725 14.5525 10.3622 14.592C9.80357 14.7918 9.22998 14.9241 8.63812 14.9738C8.59866 14.9771 8.55993 14.991 8.52047 15.0001H7.45403H7.45367Z"
    fill="currentColor" stroke="currentColor" stroke-width="0.4"/>
  <path
    d="M11.7996 13.1747C11.987 13.0194 12.1485 12.896 12.2983 12.7597C13.4199 11.74 14.106 10.4796 14.3406 8.98347C14.4984 7.97512 14.4199 6.97882 14.0958 6.00591C14.0699 5.92846 14.0479 5.84954 14.03 5.7699C13.9877 5.57772 14.0446 5.47689 14.2204 5.42428C14.3738 5.37825 14.5276 5.4462 14.5813 5.60695C14.673 5.88242 14.7691 6.15862 14.8301 6.44177C15.2477 8.38139 14.9244 10.1909 13.8459 11.8591C13.4521 12.4678 12.9632 12.9939 12.3977 13.448C12.3736 13.4674 12.3491 13.4871 12.3279 13.5368C12.3736 13.5368 12.4196 13.5368 12.4653 13.5368C12.7385 13.539 13.0122 13.5349 13.2847 13.5463C13.4265 13.5521 13.528 13.665 13.5467 13.8009C13.5631 13.9226 13.4824 14.0578 13.3593 14.1031C13.318 14.1184 13.2708 14.1232 13.2263 14.1232C12.6614 14.1246 12.0963 14.1246 11.5314 14.1235C11.3272 14.1235 11.2063 14.0084 11.2052 13.8042C11.2023 13.2394 11.2026 12.6742 11.2052 12.1094C11.2059 11.9179 11.3331 11.7886 11.5051 11.7904C11.6772 11.7923 11.797 11.9212 11.7989 12.1163C11.8014 12.4532 11.7996 12.7904 11.7996 13.1744V13.1747Z"
    fill="currentColor" stroke="currentColor" stroke-width="0.4"/>
  <path
    d="M12.9516 3.04096C12.9516 2.7348 12.9487 2.46225 12.9527 2.18934C12.9553 1.9968 13.0806 1.87149 13.2556 1.87441C13.4233 1.87733 13.5449 2.00191 13.5457 2.18861C13.5486 2.7538 13.5486 3.31862 13.5457 3.88381C13.5446 4.10156 13.4218 4.21043 13.1818 4.21116C12.644 4.21299 12.1062 4.21189 11.5684 4.21116C11.5275 4.21116 11.4862 4.20787 11.446 4.20093C11.3159 4.17828 11.2173 4.07123 11.2031 3.94117C11.1895 3.81805 11.2725 3.68323 11.3967 3.64268C11.4471 3.62624 11.5037 3.62514 11.5578 3.62514C11.921 3.62368 12.2838 3.62441 12.6469 3.62441L12.6688 3.58824C12.4328 3.37854 12.2063 3.1575 11.9597 2.96131C11.0299 2.22222 9.96892 1.78161 8.79251 1.63292C7.81192 1.5087 6.84997 1.61099 5.91359 1.93433C5.87486 1.94784 5.83723 1.96465 5.79777 1.97451C5.63739 2.01434 5.47956 1.93396 5.43243 1.79001C5.38091 1.63328 5.45289 1.46888 5.61729 1.41517C5.89751 1.3242 6.17846 1.22629 6.46635 1.16783C8.88933 0.67571 11.0145 1.26574 12.8369 2.93939C12.8661 2.96643 12.8964 2.992 12.9512 3.04059L12.9516 3.04096Z"
    fill="currentColor" stroke="currentColor" stroke-width="0.4"/>
</svg>
