<svg width="16" height="18" viewBox="0 0 16 18" fill="none" xmlns="http://www.w3.org/2000/svg">
  <path
    d="M3.67446 16.9992C3.40698 16.9242 3.15532 16.8217 2.95908 16.6125C2.75951 16.4 2.6366 16.1505 2.61577 15.8609C2.52702 14.631 2.44536 13.4006 2.35953 12.1703C2.27079 10.8932 2.17996 9.61664 2.09121 8.34003C2.0133 7.21884 1.93747 6.09765 1.86039 4.97646C1.82664 4.48982 1.79206 4.00318 1.75623 3.49987C1.58666 3.49987 1.42666 3.49987 1.26667 3.49987C0.950855 3.49987 0.802529 3.40196 0.800029 3.19114C0.797113 2.97906 0.948356 2.8749 1.25917 2.8749C2.60202 2.8749 3.94528 2.8749 5.28813 2.8749C5.34937 2.8749 5.41062 2.8749 5.48687 2.8749C5.48687 2.61742 5.48687 2.37409 5.48687 2.13119C5.48687 1.47164 5.65436 1.22915 6.26808 1C7.20553 1 8.1434 1 9.08085 1C9.20376 1.05416 9.33667 1.0925 9.44708 1.16499C9.71748 1.3429 9.85456 1.60497 9.86039 1.92828C9.86622 2.23535 9.86164 2.54242 9.86164 2.8749C9.92622 2.8749 9.9858 2.8749 10.0454 2.8749C11.2632 2.8749 12.4815 2.8749 13.6994 2.8749C13.7356 2.8749 13.7723 2.87615 13.8085 2.8749C14.4726 2.84782 14.5406 2.93115 14.5364 3.19155C14.5322 3.46071 14.4539 3.52404 13.816 3.5007C13.7448 3.4982 13.6731 3.50029 13.5935 3.50029C13.5694 3.82735 13.5452 4.13734 13.5235 4.44774C13.3885 6.38889 13.2535 8.33003 13.1198 10.2712C13.0111 11.849 12.904 13.4273 12.7961 15.0051C12.7765 15.2905 12.759 15.5763 12.734 15.8613C12.6882 16.3875 12.3078 16.8283 11.7911 16.9625C11.752 16.9729 11.7136 16.9871 11.6749 16.9996C10.7791 16.9996 9.88289 16.9996 8.9871 16.9996C8.87669 16.9271 8.77461 16.8492 8.7692 16.6996C8.76211 16.51 8.90585 16.3755 9.12626 16.375C9.87622 16.3738 10.6262 16.3746 11.3761 16.3746C11.8595 16.3746 12.0844 16.1646 12.1178 15.6872C12.2694 13.5164 12.4223 11.3453 12.5736 9.17457C12.7002 7.35675 12.8257 5.53893 12.9511 3.72111C12.9556 3.65444 12.9515 3.58695 12.9515 3.51029C9.43666 3.51029 5.92351 3.51029 2.38786 3.51029C2.40369 3.76319 2.41828 4.01484 2.43578 4.2665C2.51494 5.41435 2.59494 6.56221 2.67493 7.71007C2.76451 8.99292 2.85492 10.2758 2.94367 11.5586C3.02116 12.6752 3.09741 13.7918 3.17407 14.9089C3.1949 15.2101 3.21157 15.5117 3.23865 15.8126C3.2674 16.1384 3.5353 16.3734 3.8782 16.3742C4.65441 16.3767 5.4302 16.3705 6.20641 16.3804C6.30891 16.3817 6.4364 16.4304 6.50723 16.5021C6.65556 16.6513 6.58889 16.8446 6.36182 17C5.46603 16.9992 4.57025 16.9992 3.67446 16.9992ZM6.11309 2.86365C7.16428 2.86365 8.19673 2.86365 9.23667 2.86365C9.23667 2.54575 9.24126 2.2391 9.23501 1.93245C9.23126 1.75371 9.1046 1.62788 8.92461 1.62705C8.09132 1.6233 7.25844 1.6233 6.42515 1.62705C6.24475 1.62788 6.1185 1.75413 6.11475 1.93245C6.1085 2.2391 6.11309 2.54575 6.11309 2.86365Z"
    fill="currentColor" stroke="currentColor" stroke-width="0.5"/>
  <path
    d="M5.17421 9.94699C5.17421 10.9199 5.17338 11.8927 5.17546 12.8656C5.17588 13.0047 5.14713 13.1243 5.02214 13.2018C4.82923 13.321 4.58216 13.1989 4.55299 12.9698C4.54633 12.9185 4.54966 12.866 4.54966 12.8139C4.54966 10.894 4.54966 8.97413 4.54966 7.05464C4.54966 7.01298 4.54799 6.97131 4.55091 6.92965C4.56383 6.75216 4.69674 6.62425 4.86464 6.6255C5.03255 6.62675 5.16796 6.75549 5.17255 6.93465C5.1788 7.19963 5.17463 7.46545 5.17505 7.73044C5.17421 8.46957 5.17421 9.20828 5.17421 9.94699Z"
    fill="currentColor" stroke="currentColor" stroke-width="0.5"/>
  <path
    d="M7.98722 9.94365C7.98722 10.9011 7.98722 11.8581 7.98722 12.8156C7.98722 12.8677 7.99014 12.9202 7.98347 12.9714C7.96306 13.1306 7.83098 13.2476 7.67557 13.2481C7.52017 13.2485 7.38725 13.1318 7.36601 12.9731C7.35976 12.9268 7.36226 12.8797 7.36226 12.8327C7.36226 10.9024 7.36226 8.97203 7.36226 7.04213C7.36226 6.99547 7.35976 6.94797 7.36559 6.90173C7.38601 6.74257 7.51808 6.62591 7.67349 6.62549C7.8289 6.62507 7.96223 6.74132 7.98306 6.90006C7.98973 6.95131 7.98681 7.0038 7.98681 7.05588C7.98722 8.01875 7.98722 8.9812 7.98722 9.94365Z"
    fill="currentColor" stroke="currentColor" stroke-width="0.5"/>
  <path
    d="M10.175 9.93784C10.175 8.97539 10.175 8.01294 10.175 7.05049C10.175 6.99841 10.1721 6.94591 10.1792 6.89466C10.2021 6.73675 10.3383 6.62259 10.4937 6.62593C10.6429 6.62926 10.7716 6.74092 10.7945 6.89258C10.8025 6.94341 10.7991 6.99632 10.7991 7.0484C10.7991 8.9733 10.7991 10.8986 10.7991 12.8235C10.7991 12.8702 10.8016 12.9177 10.7966 12.9639C10.7779 13.1306 10.6412 13.2518 10.48 13.2485C10.3246 13.2447 10.1954 13.1264 10.1771 12.966C10.1712 12.9148 10.1742 12.8623 10.1742 12.8102C10.175 11.8523 10.175 10.8953 10.175 9.93784Z"
    fill="currentColor" stroke="currentColor" stroke-width="0.5"/>
</svg>
