<svg width="18" height="18" viewBox="0 0 18 18" fill="none" xmlns="http://www.w3.org/2000/svg">
  <path
    d="M16.9996 3.875C16.9196 4.16083 16.7287 4.3675 16.5246 4.57167C12.8958 8.19625 9.26917 11.8233 5.64458 15.4521C5.51958 15.5775 5.38292 15.6642 5.215 15.7196C3.99125 16.1229 2.76917 16.5313 1.54667 16.9392C1.49833 16.9554 1.45292 16.9796 1.40625 17C1.27083 17 1.13542 17 1 17C1 16.8646 1 16.7292 1 16.5938C1.15542 16.1429 1.31334 15.6925 1.46542 15.2404C1.74334 14.4125 2.01292 13.5821 2.29792 12.7567C2.345 12.6204 2.43042 12.4842 2.53208 12.3821C5.945 8.96208 9.36209 5.54583 12.7788 2.12917C12.9996 1.90833 13.2254 1.69208 13.44 1.465C13.6354 1.25833 13.8442 1.0775 14.125 1C14.2396 1 14.3542 1 14.4688 1C14.7542 1.08125 14.9617 1.27167 15.1633 1.47792C15.6113 1.93583 16.0642 2.38875 16.5221 2.83667C16.7283 3.03833 16.9179 3.24625 17 3.53125C16.9996 3.64583 16.9996 3.76042 16.9996 3.875ZM12.8183 3.01625C9.58292 6.25083 6.3475 9.48583 3.13834 12.6942C3.41792 12.9737 3.70709 13.2625 4.01334 13.5688C4.03875 13.5375 4.07416 13.4846 4.11791 13.4408C5.30666 12.2508 6.49583 11.0613 7.68583 9.87208C7.73375 9.82417 7.78125 9.77458 7.83625 9.73625C7.95792 9.65208 8.11917 9.67 8.22333 9.77167C8.32667 9.8725 8.34875 10.0363 8.2675 10.1579C8.23042 10.2138 8.18084 10.2617 8.13334 10.3096C6.93709 11.5067 5.74 12.7033 4.54333 13.9004C4.50125 13.9425 4.46083 13.9871 4.43125 14.0183C4.7325 14.32 5.01875 14.6067 5.27458 14.8629C8.50542 11.6321 11.7438 8.39417 14.9713 5.16667C14.7021 4.89875 14.4154 4.61333 14.1067 4.30583C14.0829 4.33833 14.0571 4.38542 14.0204 4.42208C12.7837 5.66 11.5463 6.89708 10.3092 8.13458C10.1025 8.34125 9.91583 8.37167 9.77125 8.2225C9.63042 8.07708 9.66167 7.89667 9.86209 7.69583C11.0954 6.46208 12.3292 5.22833 13.5642 3.99625C13.6071 3.95333 13.6679 3.92792 13.7067 3.90333C13.3821 3.57958 13.0954 3.29333 12.8183 3.01625ZM15.4592 4.72375C15.7446 4.44458 16.0321 4.17417 16.3058 3.89042C16.4192 3.7725 16.4017 3.6075 16.2767 3.48167C15.6938 2.89375 15.1088 2.30792 14.5208 1.72542C14.3771 1.58333 14.2108 1.58958 14.0633 1.72958C13.9463 1.84042 13.8346 1.9575 13.72 2.07125C13.5663 2.22417 13.4121 2.37625 13.2608 2.52625C14.0033 3.26833 14.7283 3.99333 15.4592 4.72375ZM2.76834 13.3079C2.44959 14.2646 2.1325 15.2158 1.80708 16.1929C2.79 15.865 3.74208 15.5475 4.69208 15.2304C4.04667 14.5863 3.415 13.9546 2.76834 13.3079Z"
    fill="currentColor" stroke="currentColor" stroke-width="0.2"/>
</svg>
