<svg width="20" height="22" viewBox="0 0 20 22" fill="none" xmlns="http://www.w3.org/2000/svg">
  <g clip-path="url(#clip0_2859_152999)">
    <path
      d="M11.6736 1.57801C13.5596 1.89822 15.2073 2.7148 16.6322 3.98682C16.7482 4.08941 16.8627 4.19252 17.0005 4.31739C17.0062 4.24692 17.0151 4.19977 17.014 4.15417C17.0005 3.79873 16.9788 3.44329 16.97 3.0863C16.9612 2.73397 17.1964 2.47697 17.5249 2.46661C17.857 2.45625 18.114 2.68993 18.1316 3.0407C18.1772 3.90702 18.2182 4.77386 18.2534 5.64018C18.2695 6.04277 18.0622 6.27904 17.6601 6.30236C16.7876 6.35366 15.914 6.39511 15.0415 6.43138C14.6891 6.44588 14.4187 6.18474 14.4145 5.85262C14.4099 5.53967 14.657 5.28993 14.9948 5.26972C15.3886 5.2464 15.7819 5.22723 16.2005 5.20495C16.1684 5.15936 16.1518 5.12723 16.1285 5.1034C14.657 3.6977 12.9176 2.84744 10.8897 2.64329C6.15443 2.16765 2.15495 5.42516 1.34563 9.75625C1.11195 11.0106 1.15184 12.2547 1.45599 13.4915C1.48397 13.6091 1.50573 13.7366 1.48967 13.8542C1.45132 14.1272 1.22075 14.321 0.956506 14.3329C0.665832 14.3464 0.417646 14.1832 0.357024 13.8863C-0.00877895 12.0811 -0.123287 11.0355 0.267387 9.22619C1.11039 5.31065 4.33112 2.2407 8.28241 1.57853C9.485 1.37801 10.4705 1.37386 11.6736 1.57801Z"
      fill="currentColor"/>
    <path
      d="M8.32888 20.4216C6.44131 20.1029 4.7952 19.2864 3.37033 18.0143C3.25426 17.9118 3.13976 17.8071 3.00193 17.6838C2.99468 17.7542 2.98587 17.7998 2.98743 17.847C3.00193 18.2024 3.02266 18.5579 3.03147 18.9133C3.04028 19.2672 2.80504 19.5242 2.47758 19.5346C2.14546 19.5449 1.88846 19.3097 1.87085 18.9605C1.82525 18.0941 1.78432 17.2273 1.74908 16.361C1.73147 15.9568 1.93872 15.7221 2.34235 15.6988C3.21489 15.6475 4.08743 15.605 4.961 15.5698C5.31333 15.5553 5.58224 15.8164 5.58794 16.1485C5.59261 16.4599 5.34546 16.7112 5.00763 16.7304C4.6123 16.7537 4.21903 16.7729 3.80038 16.7952C3.8325 16.8423 3.84908 16.8744 3.87395 16.8967C5.3439 18.3024 7.08328 19.1542 9.11281 19.3584C13.8465 19.834 17.8475 16.5765 18.6553 12.2439C18.889 10.991 18.8506 9.74699 18.5465 8.50864C18.517 8.39103 18.4952 8.26357 18.5128 8.14595C18.5512 7.87445 18.7817 7.68015 19.046 7.66875C19.3366 7.65528 19.5848 7.81693 19.6455 8.11538C20.0097 9.92056 20.1242 10.9662 19.7351 12.7755C18.8905 16.691 15.6698 19.761 11.719 20.4232C10.5159 20.6232 9.53199 20.6257 8.32888 20.4216Z"
      fill="currentColor"/>
  </g>
  <path
    d="M9.72624 16.5899C9.49747 16.5509 9.26449 16.5306 9.03993 16.4714C7.77817 16.1432 6.87431 15.3581 6.3508 14.1364C5.98449 13.2834 5.92554 12.4015 6.21326 11.4993C6.57536 10.3571 7.09607 9.2916 7.65888 8.2463C8.27642 7.09834 8.94308 5.9822 9.64905 4.88919C9.82308 4.62027 10.0813 4.62027 10.254 4.88919C11.2617 6.46364 12.2161 8.06991 13.0119 9.77015C13.3333 10.4569 13.6238 11.1567 13.7922 11.9041C13.9705 12.6935 13.8441 13.4511 13.5354 14.1798C13.1859 15.0039 12.6175 15.6342 11.8568 16.0767C11.3698 16.36 10.8448 16.5248 10.2862 16.5711C10.2498 16.574 10.2133 16.5841 10.1768 16.5899C10.0266 16.5899 9.87642 16.5899 9.72624 16.5899ZM9.95361 5.59184C9.92975 5.62509 9.91572 5.64244 9.90449 5.66268C9.35993 6.58943 8.80414 7.50895 8.27642 8.44581C7.74028 9.40003 7.26028 10.3846 6.89116 11.4241C6.63993 12.1297 6.57957 12.8367 6.80554 13.561C7.32063 15.2135 8.91923 16.2053 10.5712 15.88C11.4315 15.7109 12.1276 15.2526 12.6301 14.5123C13.1494 13.7475 13.3754 12.9046 13.1634 11.9735C13.0133 11.3142 12.7466 10.6998 12.4645 10.0926C11.8455 8.76533 11.1213 7.49882 10.3634 6.25256C10.2329 6.03569 10.0968 5.82171 9.95361 5.59184Z"
    fill="currentColor" stroke="currentColor" stroke-width="0.3"/>
  <path
    d="M9.8435 15.2933C8.5663 15.2485 7.47297 14.2249 7.31297 12.9193C7.29893 12.8008 7.29051 12.6808 7.28911 12.5608C7.2863 12.3786 7.41262 12.2369 7.58104 12.2254C7.74104 12.2138 7.88981 12.3352 7.90525 12.5131C7.92771 12.7834 7.94735 13.0538 8.05262 13.3068C8.38806 14.1121 8.97472 14.5632 9.82525 14.6413C9.87718 14.6456 9.93051 14.6485 9.98244 14.6557C10.1551 14.6789 10.2744 14.8191 10.266 14.9868C10.2575 15.1618 10.1228 15.2904 9.94595 15.2933C9.91086 15.2933 9.87718 15.2933 9.8435 15.2933Z"
    fill="currentColor"/>
  <defs>
    <clipPath id="clip0_2859_152999">
      <rect width="20" height="19.2228" fill="white" transform="translate(0 1.38843)"/>
    </clipPath>
  </defs>
</svg>
