<svg width="15" height="14" viewBox="0 0 15 14" fill="none" xmlns="http://www.w3.org/2000/svg">
  <path
    d="M2.11953 12.3814C1.28828 11.5502 1.28828 10.1939 2.11953 9.40645L8.63828 2.8877L11.6133 5.8627L5.13828 12.3814C4.30703 13.1689 2.95078 13.1689 2.11953 12.3814Z"
    stroke="currentColor" stroke-miterlimit="10"/>
  <path
    d="M11.9633 6.2127L8.33203 2.58145C8.11328 2.3627 8.11328 1.96895 8.33203 1.7502L8.50703 1.5752C8.72578 1.35645 9.11953 1.35645 9.33828 1.5752L12.9695 5.20644C13.1883 5.42519 13.1883 5.81895 12.9695 6.0377L12.7945 6.2127C12.5758 6.43145 12.182 6.43145 11.9633 6.2127Z"
    stroke="currentColor" stroke-miterlimit="10"/>
  <path
    d="M12.3574 4.5498L9.95117 2.14355L11.0012 1.09355C11.1324 0.962305 11.3512 0.962305 11.4824 1.09355L13.4074 3.0623C13.5387 3.19355 13.5387 3.4123 13.4074 3.54355L12.3574 4.5498Z"
    stroke="currentColor" stroke-miterlimit="10"/>
  <path d="M4.875 7H10.125" stroke="currentColor" stroke-miterlimit="10" stroke-linecap="round" stroke-linejoin="round"/>
</svg>
