<svg width="11" height="16" viewBox="0 0 11 16" fill="none" xmlns="http://www.w3.org/2000/svg">
  <g clip-path="url(#clip0_7574_430581)">
    <path
      d="M5.40922 15.2031C5.13623 15.1565 4.85821 15.1324 4.59024 15.0616C3.0846 14.67 2.00602 13.7332 1.38132 12.2754C0.944199 11.2575 0.873855 10.2051 1.21719 9.12851C1.64929 7.76556 2.27064 6.49405 2.94224 5.2467C3.67915 3.87685 4.47468 2.54496 5.31711 1.24067C5.52478 0.919776 5.83295 0.919776 6.03895 1.24067C7.24146 3.11947 8.38032 5.03621 9.32993 7.06511C9.71346 7.8846 10.0601 8.71962 10.2611 9.61158C10.4738 10.5536 10.3231 11.4576 9.95464 12.3271C9.53761 13.3105 8.85932 14.0627 7.95157 14.5906C7.37042 14.9288 6.74404 15.1255 6.07747 15.1807C6.03393 15.1841 5.99038 15.1962 5.94684 15.2031C5.76763 15.2031 5.58842 15.2031 5.40922 15.2031ZM5.68054 2.07914C5.65207 2.11882 5.63532 2.13953 5.62192 2.16368C4.9721 3.26957 4.30888 4.36682 3.67915 5.48478C3.03938 6.62345 2.4666 7.79834 2.02612 9.03879C1.72633 9.88071 1.65431 10.7244 1.92396 11.5887C2.53861 13.5607 4.44621 14.7442 6.41745 14.356C7.44411 14.1542 8.27481 13.6073 8.87439 12.7239C9.49406 11.8113 9.76371 10.8054 9.51082 9.69439C9.33161 8.90768 9.0134 8.17444 8.67676 7.44984C7.93817 5.86606 7.07398 4.35474 6.16958 2.86758C6.01383 2.60879 5.85137 2.35345 5.68054 2.07914Z"
      fill="currentColor" stroke="currentColor" stroke-width="0.328157"/>
    <path
      d="M5.55015 13.656C4.02608 13.6025 2.72141 12.3811 2.53048 10.8232C2.51373 10.6817 2.50368 10.5385 2.50201 10.3953C2.49866 10.1779 2.64939 10.0089 2.85037 9.99505C3.0413 9.98125 3.21883 10.1262 3.23725 10.3384C3.26405 10.661 3.28749 10.9836 3.4131 11.2855C3.81338 12.2465 4.51345 12.7848 5.52838 12.8779C5.59034 12.8831 5.65399 12.8866 5.71595 12.8952C5.92195 12.9228 6.06432 13.0901 6.05427 13.2903C6.04422 13.499 5.88343 13.6526 5.67241 13.656C5.63054 13.656 5.59035 13.656 5.55015 13.656Z"
      fill="currentColor"/>
  </g>
  <defs>
    <clipPath id="clip0_7574_430581">
      <rect width="11" height="16" fill="white"/>
    </clipPath>
  </defs>
</svg>
