<svg width="32" height="32" viewBox="0 0 32 32" fill="none" xmlns="http://www.w3.org/2000/svg">
  <path d="M23.1996 23.0999C24.0833 23.0999 24.7996 22.3836 24.7996 21.4999C24.7996 20.6162 24.0833 19.8999 23.1996 19.8999C22.316 19.8999 21.5996 20.6162 21.5996 21.4999C21.5996 22.3836 22.316 23.0999 23.1996 23.0999Z" stroke="currentColor" stroke-width="2" stroke-miterlimit="10" stroke-linecap="round" stroke-linejoin="round"/>
  <path d="M3.8998 23.0999C4.78346 23.0999 5.4998 22.3836 5.4998 21.4999C5.4998 20.6162 4.78346 19.8999 3.8998 19.8999C3.01615 19.8999 2.2998 20.6162 2.2998 21.4999C2.2998 22.3836 3.01615 23.0999 3.8998 23.0999Z" stroke="currentColor" stroke-width="2" stroke-miterlimit="10" stroke-linecap="round" stroke-linejoin="round"/>
  <path d="M18.6998 16.8999H2.2998" stroke="currentColor" stroke-width="2" stroke-miterlimit="10" stroke-linecap="round" stroke-linejoin="round"/>
  <path d="M26.9994 20.4998H29.8994V14.3998C29.8994 13.4998 29.5994 12.5998 29.0994 11.8998L27.3994 9.2998H21.4994H18.9994V19.8998V20.4998H8.39941" stroke="currentColor" stroke-width="2" stroke-miterlimit="10" stroke-linecap="round" stroke-linejoin="round"/>
  <path d="M29.6998 17.1L24.7998 15.3L23.7998 10" stroke="currentColor" stroke-width="2" stroke-miterlimit="10" stroke-linecap="round" stroke-linejoin="round"/>
</svg>
