<svg width="32" height="32" viewBox="0 0 32 32" fill="none" xmlns="http://www.w3.org/2000/svg">
  <path d="M7.40039 22.6001C8.50496 22.6001 9.40039 21.7047 9.40039 20.6001C9.40039 19.4955 8.50496 18.6001 7.40039 18.6001C6.29582 18.6001 5.40039 19.4955 5.40039 20.6001C5.40039 21.7047 6.29582 22.6001 7.40039 22.6001Z" stroke="currentColor" stroke-width="2" stroke-miterlimit="10" stroke-linecap="round" stroke-linejoin="round"/>
  <path d="M25.5 22.6001C26.6046 22.6001 27.5 21.7047 27.5 20.6001C27.5 19.4955 26.6046 18.6001 25.5 18.6001C24.3954 18.6001 23.5 19.4955 23.5 20.6001C23.5 21.7047 24.3954 22.6001 25.5 22.6001Z" stroke="currentColor" stroke-width="2" stroke-miterlimit="10" stroke-linecap="round" stroke-linejoin="round"/>
  <path d="M12.5 20.2002H22.8" stroke="currentColor" stroke-width="2" stroke-miterlimit="10" stroke-linecap="round" stroke-linejoin="round"/>
  <path d="M3.2 19.6002L1 18.7002V14.1002L2.4 13.3002C3.7 12.6002 5.3 12.6002 6.5 13.5002L7.4 14.1002H20.1" stroke="currentColor" stroke-width="2" stroke-miterlimit="10" stroke-linecap="round" stroke-linejoin="round"/>
  <path d="M28 20.2002H30.1L31 16.8002C29.8 15.3002 27.5 14.3002 22 14.1002H20.9C20.9 14.1002 19 11.2002 16 10.2002" stroke="currentColor" stroke-width="2" stroke-miterlimit="10" stroke-linecap="round" stroke-linejoin="round"/>
</svg>
