<svg width="32" height="32" viewBox="0 0 32 32" fill="none" xmlns="http://www.w3.org/2000/svg">
  <path d="M6.40039 22.6001C7.50496 22.6001 8.40039 21.7047 8.40039 20.6001C8.40039 19.4955 7.50496 18.6001 6.40039 18.6001C5.29582 18.6001 4.40039 19.4955 4.40039 20.6001C4.40039 21.7047 5.29582 22.6001 6.40039 22.6001Z" stroke="currentColor" stroke-width="2" stroke-miterlimit="10" stroke-linecap="round" stroke-linejoin="round"/>
  <path d="M25.5 22.6001C26.6046 22.6001 27.5 21.7047 27.5 20.6001C27.5 19.4955 26.6046 18.6001 25.5 18.6001C24.3954 18.6001 23.5 19.4955 23.5 20.6001C23.5 21.7047 24.3954 22.6001 25.5 22.6001Z" stroke="currentColor" stroke-width="2" stroke-miterlimit="10" stroke-linecap="round" stroke-linejoin="round"/>
  <path d="M11.5996 20.2002H22.7996" stroke="currentColor" stroke-width="2" stroke-miterlimit="10" stroke-linecap="round" stroke-linejoin="round"/>
  <path d="M27.9996 20.2H30.7996L30.6996 16.3C29.4996 14.3 28.5996 14.1 26.7996 14.1H25.8996C25.8996 14.1 22.2996 9.5 16.7996 9.5H4.59961C3.49961 9.5 2.49961 10.2 2.19961 11.2L1.09961 14.2V17.8L2.29961 18.7" stroke="currentColor" stroke-width="2" stroke-miterlimit="10" stroke-linecap="round" stroke-linejoin="round"/>
  <path d="M15.0996 10L16.4996 13.9L17.0996 14.1H25.8996" stroke="currentColor" stroke-width="2" stroke-miterlimit="10" stroke-linecap="round" stroke-linejoin="round"/>
  <path d="M7.09961 10L8.59961 13.9" stroke="currentColor" stroke-width="2" stroke-miterlimit="10" stroke-linecap="round" stroke-linejoin="round"/>
  <path d="M1.40039 14.1001H17.6004" stroke="currentColor" stroke-width="2" stroke-miterlimit="10" stroke-linecap="round" stroke-linejoin="round"/>
</svg>
