<svg width="32" height="32" viewBox="0 0 32 32" fill="none" xmlns="http://www.w3.org/2000/svg">
  <path d="M17.1996 22.1997H4.09961C2.69961 22.1997 1.59961 23.2997 1.59961 24.6997C1.59961 26.0997 2.69961 27.1997 4.09961 27.1997H17.1996C18.5996 27.1997 19.6996 26.0997 19.6996 24.6997C19.6996 23.3997 18.5996 22.1997 17.1996 22.1997Z" stroke="currentColor" stroke-width="2" stroke-miterlimit="10" stroke-linecap="round" stroke-linejoin="round"/>
  <path d="M15.4996 19.0998H1.59961V13.3998H6.59961V9.2998H10.9996C11.6996 9.2998 12.2996 9.5998 12.6996 10.1998L14.0996 12.1998C15.0996 13.5998 15.5996 15.1998 15.5996 16.8998V19.0998H15.4996Z" stroke="currentColor" stroke-width="2" stroke-miterlimit="10" stroke-linecap="round" stroke-linejoin="round"/>
  <path d="M15.3994 8.39993L22.8994 4.99993C24.0994 4.39993 25.5994 5.09993 25.8994 6.39993L30.3994 20.7999L28.1994 23.4999C27.3994 24.4999 25.7994 24.5999 24.8994 23.6999L22.5994 21.4999L29.3994 19.6999" stroke="currentColor" stroke-width="2" stroke-miterlimit="10" stroke-linecap="round" stroke-linejoin="round"/>
  <path d="M17.5996 11.7998L22.8996 9.2998L30.2996 20.2998" stroke="currentColor" stroke-width="2" stroke-miterlimit="10" stroke-linecap="round" stroke-linejoin="round"/>
  <path d="M6.59961 13.3999L11.0996 18.2999" stroke="currentColor" stroke-width="2" stroke-miterlimit="10" stroke-linecap="round" stroke-linejoin="round"/>
</svg>
