<svg width="32" height="32" viewBox="0 0 32 32" fill="none" xmlns="http://www.w3.org/2000/svg">
  <path d="M7.89961 24.4999C10.5506 24.4999 12.6996 22.3509 12.6996 19.6999C12.6996 17.0489 10.5506 14.8999 7.89961 14.8999C5.24864 14.8999 3.09961 17.0489 3.09961 19.6999C3.09961 22.3509 5.24864 24.4999 7.89961 24.4999Z" stroke="currentColor" stroke-width="2" stroke-miterlimit="10" stroke-linecap="round" stroke-linejoin="round"/>
  <path d="M8.7998 11.5V7.5H15.4998L17.4998 13.1H28.3998V16.5" stroke="currentColor" stroke-width="2" stroke-miterlimit="10" stroke-linecap="round" stroke-linejoin="round"/>
  <path d="M18.9992 13.1001H13.1992" stroke="currentColor" stroke-width="2" stroke-miterlimit="10" stroke-linecap="round" stroke-linejoin="round"/>
  <path d="M26.4 24.4001C27.7255 24.4001 28.8 23.3256 28.8 22.0001C28.8 20.6746 27.7255 19.6001 26.4 19.6001C25.0745 19.6001 24 20.6746 24 22.0001C24 23.3256 25.0745 24.4001 26.4 24.4001Z" stroke="currentColor" stroke-width="2" stroke-miterlimit="10" stroke-linecap="round" stroke-linejoin="round"/>
  <path d="M3.69922 12.5999C4.89922 11.8999 6.39922 11.3999 7.89922 11.3999C12.3992 11.3999 16.0992 15.0999 16.0992 19.5999H20.6992" stroke="currentColor" stroke-width="2" stroke-miterlimit="10" stroke-linecap="round" stroke-linejoin="round"/>
</svg>
