<svg width="32" height="32" viewBox="0 0 32 32" fill="none" xmlns="http://www.w3.org/2000/svg">
  <path d="M8.3002 24.0999C9.18385 24.0999 9.9002 23.3836 9.9002 22.4999C9.9002 21.6162 9.18385 20.8999 8.3002 20.8999C7.41654 20.8999 6.7002 21.6162 6.7002 22.4999C6.7002 23.3836 7.41654 24.0999 8.3002 24.0999Z" stroke="currentColor" stroke-width="2" stroke-miterlimit="10" stroke-linecap="round" stroke-linejoin="round"/>
  <path d="M17.1 24.0999C17.9837 24.0999 18.7 23.3836 18.7 22.4999C18.7 21.6162 17.9837 20.8999 17.1 20.8999C16.2163 20.8999 15.5 21.6162 15.5 22.4999C15.5 23.3836 16.2163 24.0999 17.1 24.0999Z" stroke="currentColor" stroke-width="2" stroke-miterlimit="10" stroke-linecap="round" stroke-linejoin="round"/>
  <path d="M2.7002 21.2998V12.8998H5.7002L6.7002 7.7998H14.6002C17.1002 9.7998 18.5002 12.7998 18.5002 15.8998V16.8998H3.4002" stroke="currentColor" stroke-width="2" stroke-miterlimit="10" stroke-linecap="round" stroke-linejoin="round"/>
  <path d="M24.2002 7.7998V22.4998H29.6002" stroke="currentColor" stroke-width="2" stroke-miterlimit="10" stroke-linecap="round" stroke-linejoin="round"/>
  <path d="M18.5 16.8999L24.2 22.4999" stroke="currentColor" stroke-width="2" stroke-miterlimit="10" stroke-linecap="round" stroke-linejoin="round"/>
  <path d="M13.6998 13.8L10.5998 12.7L8.7998 8.5" stroke="currentColor" stroke-width="2" stroke-miterlimit="10" stroke-linecap="round" stroke-linejoin="round"/>
</svg>
