<svg width="32" height="32" viewBox="0 0 32 32" fill="none" xmlns="http://www.w3.org/2000/svg">
  <path d="M26.1996 23.0999C27.0833 23.0999 27.7996 22.3836 27.7996 21.4999C27.7996 20.6162 27.0833 19.8999 26.1996 19.8999C25.316 19.8999 24.5996 20.6162 24.5996 21.4999C24.5996 22.3836 25.316 23.0999 26.1996 23.0999Z" stroke="currentColor" stroke-width="2" stroke-miterlimit="10" stroke-linecap="round" stroke-linejoin="round"/>
  <path d="M5.8998 23.0999C6.78346 23.0999 7.4998 22.3836 7.4998 21.4999C7.4998 20.6162 6.78346 19.8999 5.8998 19.8999C5.01615 19.8999 4.2998 20.6162 4.2998 21.4999C4.2998 22.3836 5.01615 23.0999 5.8998 23.0999Z" stroke="currentColor" stroke-width="2" stroke-miterlimit="10" stroke-linecap="round" stroke-linejoin="round"/>
  <path d="M18 7.8999H1V17.0999H18V7.8999Z" stroke="currentColor" stroke-width="2" stroke-miterlimit="10" stroke-linecap="round" stroke-linejoin="round"/>
  <path d="M30.8004 20.4998V15.5998C30.8004 14.4998 30.5004 13.2998 29.8004 12.3998L28.3004 9.9998H24.4004L21.0004 8.2998V19.8998V20.4998H10.4004" stroke="currentColor" stroke-width="2" stroke-miterlimit="10" stroke-linecap="round" stroke-linejoin="round"/>
  <path d="M30.2004 17.1L25.3004 15.3L24.4004 10" stroke="currentColor" stroke-width="2" stroke-miterlimit="10" stroke-linecap="round" stroke-linejoin="round"/>
</svg>
