<svg width="32" height="32" viewBox="0 0 32 32" fill="none" xmlns="http://www.w3.org/2000/svg">
  <path d="M17.1 20.3999H4C2.6 20.3999 1.5 21.4999 1.5 22.8999C1.5 24.2999 2.6 25.3999 4 25.3999H17.1C18.5 25.3999 19.6 24.2999 19.6 22.8999C19.6 21.5999 18.5 20.3999 17.1 20.3999Z" stroke="currentColor" stroke-width="2" stroke-miterlimit="10" stroke-linecap="round" stroke-linejoin="round"/>
  <path d="M1.5 13.7H6.5L10.6 16.8H18.7V11.4H11.9L11.6 8.5C11.5 7.4 10.6 6.5 9.5 6.5H3.1C2.2 6.5 1.5 7.2 1.5 8.1V11.7V17.4" stroke="currentColor" stroke-width="2" stroke-miterlimit="10" stroke-linecap="round" stroke-linejoin="round"/>
  <path d="M22.7998 12.6998V21.1998L24.6998 23.9998H30.4998L28.2998 21.6998C26.9998 20.3998 26.2998 18.5998 26.2998 16.6998V12.5998C26.2998 11.5998 25.4998 10.7998 24.4998 10.7998C23.5998 10.8998 22.7998 11.6998 22.7998 12.6998Z" stroke="currentColor" stroke-width="2" stroke-miterlimit="10" stroke-linecap="round" stroke-linejoin="round"/>
  <path d="M11.9 11.3999L7 13.5999" stroke="currentColor" stroke-width="2" stroke-miterlimit="10" stroke-linecap="round" stroke-linejoin="round"/>
</svg>
