<svg width="32" height="32" viewBox="0 0 32 32" fill="none" xmlns="http://www.w3.org/2000/svg">
  <path d="M27.9 24.4001C28.6732 24.4001 29.3 23.7733 29.3 23.0001C29.3 22.2269 28.6732 21.6001 27.9 21.6001C27.1268 21.6001 26.5 22.2269 26.5 23.0001C26.5 23.7733 27.1268 24.4001 27.9 24.4001Z" stroke="currentColor" stroke-width="2" stroke-miterlimit="10" stroke-linecap="round" stroke-linejoin="round"/>
  <path d="M22.3004 24.4001C23.0736 24.4001 23.7004 23.7733 23.7004 23.0001C23.7004 22.2269 23.0736 21.6001 22.3004 21.6001C21.5272 21.6001 20.9004 22.2269 20.9004 23.0001C20.9004 23.7733 21.5272 24.4001 22.3004 24.4001Z" stroke="currentColor" stroke-width="2" stroke-miterlimit="10" stroke-linecap="round" stroke-linejoin="round"/>
  <path d="M8.50059 24.4001C9.27378 24.4001 9.90059 23.7733 9.90059 23.0001C9.90059 22.2269 9.27378 21.6001 8.50059 21.6001C7.72739 21.6001 7.10059 22.2269 7.10059 23.0001C7.10059 23.7733 7.72739 24.4001 8.50059 24.4001Z" stroke="currentColor" stroke-width="2" stroke-miterlimit="10" stroke-linecap="round" stroke-linejoin="round"/>
  <path d="M2.80039 24.4001C3.57359 24.4001 4.20039 23.7733 4.20039 23.0001C4.20039 22.2269 3.57359 21.6001 2.80039 21.6001C2.02719 21.6001 1.40039 22.2269 1.40039 23.0001C1.40039 23.7733 2.02719 24.4001 2.80039 24.4001Z" stroke="currentColor" stroke-width="2" stroke-miterlimit="10" stroke-linecap="round" stroke-linejoin="round"/>
  <path d="M2 18.5001H22.2V11.6001H27.7L29.4 14.2001C29.9 14.9001 30.2 15.8001 30.2 16.7001V18.5001H26.7L25.1 16.9001" stroke="currentColor" stroke-width="2" stroke-miterlimit="10" stroke-linecap="round" stroke-linejoin="round"/>
  <path d="M30.6 10.1001V7.6001H2V13.1001L5.3 16.1001H11.1L2.3 7.9001" stroke="currentColor" stroke-width="2" stroke-miterlimit="10" stroke-linecap="round" stroke-linejoin="round"/>
  <path d="M13.7002 23H16.9002" stroke="currentColor" stroke-width="2" stroke-miterlimit="10" stroke-linecap="round" stroke-linejoin="round"/>
</svg>
