<svg width="32" height="32" viewBox="0 0 32 32" fill="none" xmlns="http://www.w3.org/2000/svg">
  <path d="M26.5 23.5C28.1569 23.5 29.5 22.1569 29.5 20.5C29.5 18.8431 28.1569 17.5 26.5 17.5C24.8431 17.5 23.5 18.8431 23.5 20.5C23.5 22.1569 24.8431 23.5 26.5 23.5Z" stroke="currentColor" stroke-width="2" stroke-miterlimit="10" stroke-linecap="round" stroke-linejoin="round"/>
  <path d="M6.39941 23.5C8.05627 23.5 9.39941 22.1569 9.39941 20.5C9.39941 18.8431 8.05627 17.5 6.39941 17.5C4.74256 17.5 3.39941 18.8431 3.39941 20.5C3.39941 22.1569 4.74256 23.5 6.39941 23.5Z" stroke="currentColor" stroke-width="2" stroke-miterlimit="10" stroke-linecap="round" stroke-linejoin="round"/>
  <path d="M12.5996 20.5H23.0996" stroke="currentColor" stroke-width="2" stroke-miterlimit="10" stroke-linecap="round" stroke-linejoin="round"/>
  <path d="M30.8996 16.8L30.5996 16.2C29.8996 14.9 28.6996 13 27.1996 12.9L15.3996 12.3L13.5996 8.5H3.79961L2.89961 10.3L1.89961 11.6C1.39961 11.9 1.09961 12.5 1.09961 13.1V18" stroke="currentColor" stroke-width="2" stroke-miterlimit="10" stroke-linecap="round" stroke-linejoin="round"/>
  <path d="M6.59961 8.5H17.5996C18.8996 8.5 20.1996 8.9 21.2996 9.7L23.9996 12.5" stroke="currentColor" stroke-width="2" stroke-miterlimit="10" stroke-linecap="round" stroke-linejoin="round"/>
  <path d="M15.3996 12.2998L7.59961 11.7998" stroke="currentColor" stroke-width="2" stroke-miterlimit="10" stroke-linecap="round" stroke-linejoin="round"/>
</svg>
