<svg width="32" height="32" viewBox="0 0 32 32" fill="none" xmlns="http://www.w3.org/2000/svg">
  <path d="M25.8002 24.0999C26.6838 24.0999 27.4002 23.3836 27.4002 22.4999C27.4002 21.6162 26.6838 20.8999 25.8002 20.8999C24.9165 20.8999 24.2002 21.6162 24.2002 22.4999C24.2002 23.3836 24.9165 24.0999 25.8002 24.0999Z" stroke="currentColor" stroke-width="2" stroke-miterlimit="10" stroke-linecap="round" stroke-linejoin="round"/>
  <path d="M4.3998 24.0999C5.28346 24.0999 5.9998 23.3836 5.9998 22.4999C5.9998 21.6162 5.28346 20.8999 4.3998 20.8999C3.51615 20.8999 2.7998 21.6162 2.7998 22.4999C2.7998 23.3836 3.51615 24.0999 4.3998 24.0999Z" stroke="currentColor" stroke-width="2" stroke-miterlimit="10" stroke-linecap="round" stroke-linejoin="round"/>
  <path d="M10.3002 24.0999C11.1839 24.0999 11.9002 23.3836 11.9002 22.4999C11.9002 21.6162 11.1839 20.8999 10.3002 20.8999C9.41654 20.8999 8.7002 21.6162 8.7002 22.4999C8.7002 23.3836 9.41654 24.0999 10.3002 24.0999Z" stroke="currentColor" stroke-width="2" stroke-miterlimit="10" stroke-linecap="round" stroke-linejoin="round"/>
  <path d="M30.3996 21.5002V16.6002C30.3996 15.5002 30.0996 14.3002 29.3996 13.4002L27.7996 11.0002H23.8996L21.4996 9.2002V20.8002V21.4002H15.0996" stroke="currentColor" stroke-width="2" stroke-miterlimit="10" stroke-linecap="round" stroke-linejoin="round"/>
  <path d="M4.20007 7.90008L9.80007 8.50008C9.90007 8.50008 10.0001 8.50008 10.0001 8.60008L17.6001 11.3001C18.3001 11.5001 18.6001 12.2001 18.5001 12.9001L17.5001 16.8001C17.3001 17.5001 16.7001 17.9001 16.0001 17.8001L8.00007 16.6001C7.90007 16.6001 7.80007 16.6001 7.80007 16.5001L2.60007 14.4001C2.00007 14.1001 1.60007 13.5001 1.80007 12.8001L2.80007 8.80008C2.80007 8.20008 3.50007 7.80008 4.20007 7.90008Z" stroke="currentColor" stroke-width="2" stroke-miterlimit="10" stroke-linecap="round" stroke-linejoin="round"/>
  <path d="M9.89961 8.8999L8.09961 16.1999" stroke="currentColor" stroke-width="2" stroke-miterlimit="10" stroke-linecap="round" stroke-linejoin="round"/>
  <path d="M3.9998 15.8003L2.7998 18.1003" stroke="currentColor" stroke-width="2" stroke-miterlimit="10" stroke-linecap="round" stroke-linejoin="round"/>
  <path d="M30.2996 17.8998L25.8996 16.3998L25.0996 11.7998" stroke="currentColor" stroke-width="2" stroke-miterlimit="10" stroke-linecap="round" stroke-linejoin="round"/>
</svg>
