<svg width="32" height="32" viewBox="0 0 32 32" fill="none" xmlns="http://www.w3.org/2000/svg">
  <path d="M6.2002 23.1001C7.30476 23.1001 8.2002 22.2047 8.2002 21.1001C8.2002 19.9955 7.30476 19.1001 6.2002 19.1001C5.09563 19.1001 4.2002 19.9955 4.2002 21.1001C4.2002 22.2047 5.09563 23.1001 6.2002 23.1001Z" stroke="currentColor" stroke-width="2" stroke-miterlimit="10" stroke-linecap="round" stroke-linejoin="round"/>
  <path d="M25.2998 23.1001C26.4044 23.1001 27.2998 22.2047 27.2998 21.1001C27.2998 19.9955 26.4044 19.1001 25.2998 19.1001C24.1952 19.1001 23.2998 19.9955 23.2998 21.1001C23.2998 22.2047 24.1952 23.1001 25.2998 23.1001Z" stroke="currentColor" stroke-width="2" stroke-miterlimit="10" stroke-linecap="round" stroke-linejoin="round"/>
  <path d="M11.4004 20.6997H22.6004" stroke="currentColor" stroke-width="2" stroke-miterlimit="10" stroke-linecap="round" stroke-linejoin="round"/>
  <path d="M1.2002 18.6999V8.8999H22.5002C24.7002 8.8999 26.6002 9.9999 27.7002 11.8999L30.8002 17.2999L29.9002 20.6999H27.8002" stroke="currentColor" stroke-width="2" stroke-miterlimit="10" stroke-linecap="round" stroke-linejoin="round"/>
  <path d="M21.9004 9.5L23.3004 14.4L23.9004 14.6H28.3004" stroke="currentColor" stroke-width="2" stroke-miterlimit="10" stroke-linecap="round" stroke-linejoin="round"/>
  <path d="M17.7998 12V20.7" stroke="currentColor" stroke-width="2" stroke-miterlimit="10" stroke-linecap="round" stroke-linejoin="round"/>
</svg>
