<svg width="32" height="32" viewBox="0 0 32 32" fill="none" xmlns="http://www.w3.org/2000/svg">
  <path d="M6.40039 22.6001C7.50496 22.6001 8.40039 21.7047 8.40039 20.6001C8.40039 19.4955 7.50496 18.6001 6.40039 18.6001C5.29582 18.6001 4.40039 19.4955 4.40039 20.6001C4.40039 21.7047 5.29582 22.6001 6.40039 22.6001Z" stroke="currentColor" stroke-width="2" stroke-miterlimit="10" stroke-linecap="round" stroke-linejoin="round"/>
  <path d="M25.5 22.6001C26.6046 22.6001 27.5 21.7047 27.5 20.6001C27.5 19.4955 26.6046 18.6001 25.5 18.6001C24.3954 18.6001 23.5 19.4955 23.5 20.6001C23.5 21.7047 24.3954 22.6001 25.5 22.6001Z" stroke="currentColor" stroke-width="2" stroke-miterlimit="10" stroke-linecap="round" stroke-linejoin="round"/>
  <path d="M12.0996 20.2002H22.7996" stroke="currentColor" stroke-width="2" stroke-miterlimit="10" stroke-linecap="round" stroke-linejoin="round"/>
  <path d="M28 20.2001H30.1L31 17.6001L30.7 17.0001C28.3 15.2001 25.9 15.1001 23.9 14.2001C23.9 14.2001 20.3 10.6001 14.8 10.6001H7C5.4 10.6001 3.8 11.3001 2.7 12.5001L1 14.1001V17.7001L2.2 18.6001" stroke="currentColor" stroke-width="2" stroke-miterlimit="10" stroke-linecap="round" stroke-linejoin="round"/>
  <path d="M13.0996 11L14.4996 13.9L15.0996 14.1H23.8996" stroke="currentColor" stroke-width="2" stroke-miterlimit="10" stroke-linecap="round" stroke-linejoin="round"/>
  <path d="M7.09961 11L8.49961 13.9L9.09961 14.1H14.4996" stroke="currentColor" stroke-width="2" stroke-miterlimit="10" stroke-linecap="round" stroke-linejoin="round"/>
</svg>
