<svg width="32" height="32" viewBox="0 0 32 32" fill="none" xmlns="http://www.w3.org/2000/svg">
  <path d="M10.3002 23.0999C11.1839 23.0999 11.9002 22.3836 11.9002 21.4999C11.9002 20.6162 11.1839 19.8999 10.3002 19.8999C9.41654 19.8999 8.7002 20.6162 8.7002 21.4999C8.7002 22.3836 9.41654 23.0999 10.3002 23.0999Z" stroke="currentColor" stroke-width="2" stroke-miterlimit="10" stroke-linecap="round" stroke-linejoin="round"/>
  <path d="M3.8998 23.0999C4.78346 23.0999 5.4998 22.3836 5.4998 21.4999C5.4998 20.6162 4.78346 19.8999 3.8998 19.8999C3.01615 19.8999 2.2998 20.6162 2.2998 21.4999C2.2998 22.3836 3.01615 23.0999 3.8998 23.0999Z" stroke="currentColor" stroke-width="2" stroke-miterlimit="10" stroke-linecap="round" stroke-linejoin="round"/>
  <path d="M1.90039 17.2002H22.1004L24.3004 15.6002H30.1004V7.7002H1.90039V17.2002Z" stroke="currentColor" stroke-width="2" stroke-miterlimit="10" stroke-linecap="round" stroke-linejoin="round"/>
  <path d="M26.2998 20V22.7" stroke="currentColor" stroke-width="2" stroke-miterlimit="10" stroke-linecap="round" stroke-linejoin="round"/>
</svg>
