<svg width="32" height="32" viewBox="0 0 32 32" fill="none" xmlns="http://www.w3.org/2000/svg">
  <path d="M6.2002 22.6001C7.30476 22.6001 8.2002 21.7047 8.2002 20.6001C8.2002 19.4955 7.30476 18.6001 6.2002 18.6001C5.09563 18.6001 4.2002 19.4955 4.2002 20.6001C4.2002 21.7047 5.09563 22.6001 6.2002 22.6001Z" stroke="currentColor" stroke-width="2" stroke-miterlimit="10" stroke-linecap="round" stroke-linejoin="round"/>
  <path d="M25.2998 22.6001C26.4044 22.6001 27.2998 21.7047 27.2998 20.6001C27.2998 19.4955 26.4044 18.6001 25.2998 18.6001C24.1952 18.6001 23.2998 19.4955 23.2998 20.6001C23.2998 21.7047 24.1952 22.6001 25.2998 22.6001Z" stroke="currentColor" stroke-width="2" stroke-miterlimit="10" stroke-linecap="round" stroke-linejoin="round"/>
  <path d="M11.4004 20.2002H22.6004" stroke="currentColor" stroke-width="2" stroke-miterlimit="10" stroke-linecap="round" stroke-linejoin="round"/>
  <path d="M27.8002 20.2H29.9002L30.8002 16.8C29.6002 14.8 28.3002 14.1 26.6002 14.1H25.7002C25.7002 14.1 22.1002 9.5 16.6002 9.5H1.2002V18.3" stroke="currentColor" stroke-width="2" stroke-miterlimit="10" stroke-linecap="round" stroke-linejoin="round"/>
  <path d="M16.9004 10L18.3004 13.9L18.9004 14.1H25.7004" stroke="currentColor" stroke-width="2" stroke-miterlimit="10" stroke-linecap="round" stroke-linejoin="round"/>
</svg>
