<svg width="32" height="32" viewBox="0 0 32 32" fill="none" xmlns="http://www.w3.org/2000/svg">
  <path d="M23.2006 23.0999C24.0842 23.0999 24.8006 22.3836 24.8006 21.4999C24.8006 20.6162 24.0842 19.8999 23.2006 19.8999C22.3169 19.8999 21.6006 20.6162 21.6006 21.4999C21.6006 22.3836 22.3169 23.0999 23.2006 23.0999Z" stroke="currentColor" stroke-width="2" stroke-miterlimit="10" stroke-linecap="round" stroke-linejoin="round"/>
  <path d="M7.90078 23.0999C8.78444 23.0999 9.50078 22.3836 9.50078 21.4999C9.50078 20.6162 8.78444 19.8999 7.90078 19.8999C7.01713 19.8999 6.30078 20.6162 6.30078 21.4999C6.30078 22.3836 7.01713 23.0999 7.90078 23.0999Z" stroke="currentColor" stroke-width="2" stroke-miterlimit="10" stroke-linecap="round" stroke-linejoin="round"/>
  <path d="M18.6004 21.2998H12.9004" stroke="currentColor" stroke-width="2" stroke-miterlimit="10" stroke-linecap="round" stroke-linejoin="round"/>
  <path d="M2.80078 13.8999H22.9008L28.7008 19.0999" stroke="currentColor" stroke-width="2" stroke-miterlimit="10" stroke-linecap="round" stroke-linejoin="round"/>
  <path d="M27.8004 21.3L28.8004 20.9C29.4004 20.6 29.8004 20 29.8004 19.3V14.1C29.8004 13.2 29.5004 12.3 29.0004 11.6L27.3004 9H1.90039V17.7V21.2H3.30039" stroke="currentColor" stroke-width="2" stroke-miterlimit="10" stroke-linecap="round" stroke-linejoin="round"/>
</svg>
