<svg width="32" height="32" viewBox="0 0 32 32" fill="none" xmlns="http://www.w3.org/2000/svg">
  <path d="M25.8002 22.8001C27.2361 22.8001 28.4002 21.636 28.4002 20.2001C28.4002 18.7642 27.2361 17.6001 25.8002 17.6001C24.3643 17.6001 23.2002 18.7642 23.2002 20.2001C23.2002 21.636 24.3643 22.8001 25.8002 22.8001Z" stroke="currentColor" stroke-width="2" stroke-miterlimit="10" stroke-linecap="round" stroke-linejoin="round"/>
  <path d="M6.3002 22.8001C7.73614 22.8001 8.9002 21.636 8.9002 20.2001C8.9002 18.7642 7.73614 17.6001 6.3002 17.6001C4.86426 17.6001 3.7002 18.7642 3.7002 20.2001C3.7002 21.636 4.86426 22.8001 6.3002 22.8001Z" stroke="currentColor" stroke-width="2" stroke-miterlimit="10" stroke-linecap="round" stroke-linejoin="round"/>
  <path d="M12 20.2002H22.7" stroke="currentColor" stroke-width="2" stroke-miterlimit="10" stroke-linecap="round" stroke-linejoin="round"/>
  <path d="M30.5 17.5002L30.2 16.9002C29.5 15.6002 28.3 14.7002 26.8 14.6002L12 14.0002L10 10.2002" stroke="currentColor" stroke-width="2" stroke-miterlimit="10" stroke-linecap="round" stroke-linejoin="round"/>
  <path d="M22.5 14.2002L17.8 10.4002C16.7 9.6002 15.5 9.2002 14.1 9.2002H7.8C6.7 9.2002 4.7 9.8002 4.1 10.7002L1.5 14.7002V17.7002" stroke="currentColor" stroke-width="2" stroke-miterlimit="10" stroke-linecap="round" stroke-linejoin="round"/>
</svg>

