<svg width="32" height="32" viewBox="0 0 32 32" fill="none" xmlns="http://www.w3.org/2000/svg">
  <path d="M3.69961 23.7C4.58327 23.7 5.29961 22.9837 5.29961 22.1C5.29961 21.2163 4.58327 20.5 3.69961 20.5C2.81595 20.5 2.09961 21.2163 2.09961 22.1C2.09961 22.9837 2.81595 23.7 3.69961 23.7Z" stroke="currentColor" stroke-width="2" stroke-miterlimit="10" stroke-linecap="round" stroke-linejoin="round"/>
  <path d="M16.4994 23.7C17.3831 23.7 18.0994 22.9837 18.0994 22.1C18.0994 21.2163 17.3831 20.5 16.4994 20.5C15.6158 20.5 14.8994 21.2163 14.8994 22.1C14.8994 22.9837 15.6158 23.7 16.4994 23.7Z" stroke="currentColor" stroke-width="2" stroke-miterlimit="10" stroke-linecap="round" stroke-linejoin="round"/>
  <path d="M2.09961 9.7999C4.69961 8.1999 7.69961 7.3999 10.6996 7.3999H16.9996C18.7996 8.8999 19.8996 12.0999 19.8996 14.3999V17.4999H2.09961V9.7999Z" stroke="currentColor" stroke-width="2" stroke-miterlimit="10" stroke-linecap="round" stroke-linejoin="round"/>
  <path d="M28.8998 20.6997H25.2998L24.2998 23.2997H29.8998L28.8998 20.6997Z" stroke="currentColor" stroke-width="2" stroke-miterlimit="10" stroke-linecap="round" stroke-linejoin="round"/>
  <path d="M26.3994 17.1997H19.8994" stroke="currentColor" stroke-width="2" stroke-miterlimit="10" stroke-linecap="round" stroke-linejoin="round"/>
  <path d="M25.2994 20.7H21.9994L10.3994 8" stroke="currentColor" stroke-width="2" stroke-miterlimit="10" stroke-linecap="round" stroke-linejoin="round"/>
  <path d="M12 21.7998H8.5" stroke="currentColor" stroke-width="2" stroke-miterlimit="10" stroke-linecap="round" stroke-linejoin="round"/>
</svg>
