<svg width="32" height="32" viewBox="0 0 32 32" fill="none" xmlns="http://www.w3.org/2000/svg">
  <path d="M6.40039 22.6001C7.50496 22.6001 8.40039 21.7047 8.40039 20.6001C8.40039 19.4955 7.50496 18.6001 6.40039 18.6001C5.29582 18.6001 4.40039 19.4955 4.40039 20.6001C4.40039 21.7047 5.29582 22.6001 6.40039 22.6001Z" stroke="currentColor" stroke-width="2" stroke-miterlimit="10" stroke-linecap="round" stroke-linejoin="round"/>
  <path d="M25.5 22.6001C26.6046 22.6001 27.5 21.7047 27.5 20.6001C27.5 19.4955 26.6046 18.6001 25.5 18.6001C24.3954 18.6001 23.5 19.4955 23.5 20.6001C23.5 21.7047 24.3954 22.6001 25.5 22.6001Z" stroke="currentColor" stroke-width="2" stroke-miterlimit="10" stroke-linecap="round" stroke-linejoin="round"/>
  <path d="M11.5 20.2002H22.8" stroke="currentColor" stroke-width="2" stroke-miterlimit="10" stroke-linecap="round" stroke-linejoin="round"/>
  <path d="M28 20.2H30.1L31 16.8C29.1 15.6 26 15 23.3 14.1H22.9C22.9 14.1 21.2 10.5 16.1 10.5C13.1 10.5 9 10.5 9 10.5L5.7 13.2L1 14.1V17.7L2.2 18.6" stroke="currentColor" stroke-width="2" stroke-miterlimit="10" stroke-linecap="round" stroke-linejoin="round"/>
  <path d="M12.0996 12L13.4996 13.9L14.0996 14.1H22.8996" stroke="currentColor" stroke-width="2" stroke-miterlimit="10" stroke-linecap="round" stroke-linejoin="round"/>
</svg>
