<svg width="32" height="32" viewBox="0 0 32 32" fill="none" xmlns="http://www.w3.org/2000/svg">
<path d="M16 24.2002C18.4853 24.2002 20.5 22.1855 20.5 19.7002C20.5 17.2149 18.4853 15.2002 16 15.2002C13.5147 15.2002 11.5 17.2149 11.5 19.7002C11.5 22.1855 13.5147 24.2002 16 24.2002Z" stroke="currentColor" stroke-width="2" stroke-miterlimit="10" stroke-linecap="round" stroke-linejoin="round"/>
<path d="M15.9998 6.60019C17.2148 6.60019 18.1998 5.61522 18.1998 4.4002C18.1998 3.18517 17.2148 2.2002 15.9998 2.2002C14.7848 2.2002 13.7998 3.18517 13.7998 4.4002C13.7998 5.61522 14.7848 6.60019 15.9998 6.60019Z" stroke="currentColor" stroke-width="2" stroke-miterlimit="10" stroke-linecap="round" stroke-linejoin="round"/>
<path d="M26.2998 18.4004H30.4998V21.9004H29.3998" stroke="currentColor" stroke-width="2" stroke-miterlimit="10" stroke-linecap="round" stroke-linejoin="round"/>
<path d="M18.2002 4.80029L20.4002 18.8003" stroke="currentColor" stroke-width="2" stroke-miterlimit="10" stroke-linecap="round" stroke-linejoin="round"/>
<path d="M11.5 19.0003L13.7 4.80029" stroke="currentColor" stroke-width="2" stroke-miterlimit="10" stroke-linecap="round" stroke-linejoin="round"/>
<path d="M5 12.6002L10 7.5002L9.9 7.2002L6.4 3.7002L1.5 8.6002L6.9 15.2002V15.4002C6.3 16.7002 5.9 18.2002 5.9 19.7002C5.9 25.3002 10.4 29.8002 16 29.8002C21.6 29.8002 26.1 25.3002 26.1 19.7002C26.1 17.8002 25.6 16.1002 24.7 14.6002V14.4002L30.5 8.6002L25.6 3.7002L22 7.3002V7.6002L26.7 12.3002" stroke="currentColor" stroke-width="2" stroke-miterlimit="10" stroke-linecap="round" stroke-linejoin="round"/>
</svg>
