<svg width="32" height="33" viewBox="0 0 32 33" fill="none" xmlns="http://www.w3.org/2000/svg">
<path d="M23 14.7998H8V12.1998C8 10.7998 9.1 9.7998 10.4 9.7998H20.5C21.9 9.7998 22.9 10.8998 22.9 12.1998V14.7998H23Z" stroke="currentColor" stroke-width="2" stroke-miterlimit="10" stroke-linecap="round" stroke-linejoin="round"/>
<path d="M8.09961 17.8999L23.0996 17.8999L23.0996 20.4999C23.0996 21.8999 21.9996 22.8999 20.6996 22.8999L10.5996 22.8999C9.19961 22.8999 8.19961 21.7999 8.19961 20.4999L8.19961 17.8999L8.09961 17.8999Z" stroke="currentColor" stroke-width="2" stroke-miterlimit="10" stroke-linecap="round" stroke-linejoin="round"/>
<path d="M18 1H13V9.8H18V1Z" stroke="currentColor" stroke-width="2" stroke-miterlimit="10" stroke-linecap="round" stroke-linejoin="round"/>
<path d="M13.0996 31.7002L18.0996 31.7002L18.0996 22.9002L13.0996 22.9002L13.0996 31.7002Z" stroke="currentColor" stroke-width="2" stroke-miterlimit="10" stroke-linecap="round" stroke-linejoin="round"/>
</svg>
